<?xml version="1.0" encoding="utf-8"?>
<!-- Generator: Adobe Illustrator 27.9.0, SVG Export Plug-In . SVG Version: 6.00 Build 0)  -->
<svg version="1.1" id="Layer_1" xmlns="http://www.w3.org/2000/svg" xmlns:xlink="http://www.w3.org/1999/xlink" x="0px" y="0px"
	 viewBox="0 0 1000 1000" style="enable-background:new 0 0 1000 1000;" xml:space="preserve">
<style type="text/css">
	.st0{fill:#0D0244;}
	.st1{fill:#FFFDFF;}
</style>
<g>
	<g>
		<polygon class="st0" points="419.5,434.6 497.4,456 497.4,488.1 418.8,467.4 		"/>
		<polygon class="st0" points="577.5,434.6 499.6,456 499.6,488.1 578.3,467.4 		"/>
		<path class="st0" d="M427.1,474.3l70.3,18.1c0,0,0,45,0,45c-1.9,0.6-15.1,0.2-16.6,0.1c-1.8-0.1-11.5-1.2-16.5-2.3
			c-8.4-1.9-15.4-2.8-23.3-6.5c-1.4-0.7-2.8-1.4-4.2-2.1c-1.5-0.8-9.7-4.1-9.7-5.8C427.1,520.8,427.1,474.3,427.1,474.3z"/>
		<path class="st0" d="M569.8,473.2c-23,6.4-46.1,12.7-69,19.1c0.1,15,0.2,30,0.3,45c0,0,0,0.1,0.1,0.1c4.4-0.5,9.4-1.4,14.8-2.8
			c19.6-5.2,35.8-17.8,51.2-30.4c0.4-0.3,2.6-1.7,2.6-2.1C569.8,502.1,569.8,473.2,569.8,473.2z"/>
		<path class="st0" d="M579,482.8c1-0.4,6.4,5.9,7.6,12.5c3.2,18.5-13.2,33.7-27.3,42.9c-10.8,7-23,12.7-35.3,16.4
			c-19.3,5.8-34.8,6.1-39.7,6.1c-6.7,0-16-0.1-27.5-3c-12.4-3.2-34-8.8-41.2-25.9c-5.7-13.4-0.3-29.1,1.5-29
			c1.5,0-0.7,11.1,4.5,21.4c12.7,24.7,52.2,25.9,75.9,23.9c17.9-1.5,35.4-7.2,50.6-16.7c8.5-5.3,17.3-11.4,23.6-19.5
			c3.1-3.9,5.4-8.5,6.5-13.5c0.8-3.6,0.6-7.6,0.6-7.6C579.2,485.5,578.5,483,579,482.8z"/>
		<polygon class="st0" points="428.7,431.6 497.4,453 568.3,432.3 539.4,424.7 459.9,424.7 		"/>
		<path class="st1" d="M545.4,521.6c-5,2.8-10.1,5.6-15.1,8.4c-0.1-15.3-0.2-30.6-0.2-45.8c5.1-1.4,10.2-3,15.3-4.4
			C545.4,493.7,545.4,507.7,545.4,521.6z"/>
		<path class="st1" d="M450.5,532.2c3,0.8,5.1,1.5,6.6,1.9c1.4,0.3,2.7,0.6,4.1,0.9c0.8,0.2,1.6,0.3,2.4,0.5
			c0.6,0.2,1.1,0.2,1.8,0.3c0.6,0.1,1.2,0.1,1.5,0c0.2-17,0.4-34.3,0.6-51.2c-6.3-1.6-11.4-2.8-16.8-4.1
			C450.6,497.8,450.6,514.8,450.5,532.2z"/>
		<path class="st1" d="M451.6,426.6l81.5,19.6l0.2,21.1l4.2-12.8l2.2,11l0.7-23.1c-23.4-6.2-46.7-12.4-70.1-18.6
			C458.8,424.3,457.5,425.5,451.6,426.6z"/>
		<path class="st1" d="M467.2,448.5c0.1,5.1,0.2,10.3,0.2,15.5c0.1,5.4,0.1,10.9,0.2,16.3c-5.4-1.4-10.9-2.9-16.4-4.3
			c0.3-5.3,0.6-10.7,0.9-16c0.3-5.1,0.6-10.2,0.9-15.2c26.8-7,53.6-14,80.5-21.1c5,0.7,9.1,1.6,12.6,2.8
			C520,433.6,493.2,441.2,467.2,448.5z"/>
		<g>
			<path class="st0" d="M483.1,427.9c-8-1.5-16.4-3.4-23.3-8c-12.3-8.1-10.4-27.9,4.3-32c10.9-3.1,21.9,4.6,27.9,13.2
				c1.1,1.7,2.2,3.4,3,5.2c1.7,3.6,4.3,8.5,4.8,10.9c1.4-4.4,3.2-11.6,7.4-18.5c6.2-10.2,21.5-16.2,32.2-8.9
				c6.5,4.4,7.7,12.8,5,19.7c-3.1,7.9-9.5,12.5-17.3,15.2c-3.9,1.4-7.3,2.1-12.2,3c-3.8,0.7-6.9,1.2-9.2,1.5
				C498.1,429.3,490.6,429.3,483.1,427.9z"/>
			<path class="st1" d="M508.8,420.1c1.8-5.3,3.6-11,7-15.5c2.5-3.3,6.4-6.3,10.8-6.2c3.9,0.1,6.9,3,7,7
				c0.2,11.2-15.5,13.6-23.3,16.2c-0.3,0.1-1.1,0.4-1.5,0C508.5,421.3,508.7,420.5,508.8,420.1z"/>
			<path class="st1" d="M489.8,422.3c-5.4-1-11.4-2-16.3-4.8c-3.6-2-7.1-5.5-7.7-9.8c-0.5-3.9,2-7.3,5.9-8
				c11-1.8,15.6,13.4,19.3,20.8c0.2,0.2,0.6,1.1,0.2,1.5S490.1,422.3,489.8,422.3z"/>
		</g>
	</g>
	<g>
		<path class="st0" d="M301.6,612.7l-0.1-20.3l-9.9,16.5h-4.8l-9.8-16v19.8h-10v-38.3h8.9l13.5,22.1l13.1-22.1h8.9l0.1,38.3H301.6z"
			/>
		<path class="st0" d="M319.2,574.4H330v38.3h-10.8V574.4z"/>
		<path class="st0" d="M354.5,602.5h-5.9v10.2h-10.8v-38.3h17.5c10.5,0,17,5.4,17,14.2c0,5.6-2.7,9.8-7.5,12.1l8.3,12h-11.6
			L354.5,602.5z M354.6,582.9h-6v11.2h6c4.5,0,6.7-2.1,6.7-5.6C361.4,585,359.1,582.9,354.6,582.9z"/>
		<path class="st0" d="M428.8,588.5c0,8.7-6.6,14.1-17,14.1h-6.7v10h-10.8v-38.3h17.5C422.2,574.4,428.8,579.8,428.8,588.5z
			 M417.8,588.5c0-3.6-2.2-5.6-6.7-5.6h-6v11.2h6C415.6,594.1,417.8,592.1,417.8,588.5z"/>
		<path class="st0" d="M432.6,593.5c0-11.5,9-19.9,21.3-19.9s21.3,8.4,21.3,19.9s-9,19.9-21.3,19.9
			C441.8,613.5,432.6,605,432.6,593.5z M464.3,593.5c0-6.6-4.5-11-10.4-11c-5.9,0-10.4,4.3-10.4,11c0,6.6,4.5,11,10.4,11
			C459.8,604.5,464.3,600.2,464.3,593.5z"/>
		<path class="st0" d="M480.9,574.4H499c12.7,0,21.4,7.4,21.4,19.2s-8.7,19.2-21.4,19.2H481L480.9,574.4L480.9,574.4z M498.6,604
			c6.5,0,10.9-3.9,10.9-10.5s-4.4-10.5-10.9-10.5h-6.8v21H498.6z"/>
		<path class="st0" d="M551.3,605.2h-16.2l-3,7.4H521l16.9-38.3h10.7l17,38.3h-11.3L551.3,605.2z M548.1,597.3l-4.9-12.3l-4.9,12.3
			H548.1z"/>
		<path class="st0" d="M585.5,602.5h-5.9v10.2h-10.8v-38.3h17.5c10.5,0,17,5.4,17,14.2c0,5.6-2.7,9.8-7.5,12.1l8.3,12h-11.6
			L585.5,602.5z M585.5,582.9h-6v11.2h6c4.5,0,6.7-2.1,6.7-5.6C592.2,585,590,582.9,585.5,582.9z"/>
		<path class="st0" d="M624,598.8l-4.1,4.3v9.6h-10.7v-38.3h10.7v15.9l14.8-15.9h11.9l-15.7,17l16.5,21.4h-12.6L624,598.8z"/>
		<path class="st0" d="M647,593.5c0-11.5,9-19.9,21.3-19.9s21.3,8.4,21.3,19.9s-9,19.9-21.3,19.9C656,613.5,647,605,647,593.5z
			 M678.8,593.5c0-6.6-4.5-11-10.4-11s-10.4,4.3-10.4,11c0,6.6,4.5,11,10.4,11S678.8,600.2,678.8,593.5z"/>
		<path class="st0" d="M733,574.4l-16.4,38.3h-10.7l-16.4-38.3h11.7l10.4,25l10.6-25H733z"/>
	</g>
</g>
</svg>
