<?xml version="1.0" encoding="UTF-8" standalone="no" ?>
<!DOCTYPE svg PUBLIC "-//W3C//DTD SVG 1.1//EN" "http://www.w3.org/Graphics/SVG/1.1/DTD/svg11.dtd">
<svg xmlns="http://www.w3.org/2000/svg" xmlns:xlink="http://www.w3.org/1999/xlink" version="1.1" width="1200" height="628" viewBox="0 0 1200 628" xml:space="preserve">
<desc>Created with Fabric.js 5.2.4</desc>
<defs>
</defs>
<g transform="matrix(1 0 0 1 600 314)" id="57d65d0a-2dd4-41f1-93e4-18503de62843"  >
<rect style="stroke: none; stroke-width: 1; stroke-dasharray: none; stroke-linecap: butt; stroke-dashoffset: 0; stroke-linejoin: miter; stroke-miterlimit: 4; fill: rgb(255,255,255); fill-rule: nonzero; opacity: 1; visibility: hidden;" vector-effect="non-scaling-stroke"  x="-600" y="-314" rx="0" ry="0" width="1200" height="628" />
</g>
<g transform="matrix(Infinity NaN NaN Infinity 0 0)" id="babc278b-9047-4868-8bc2-ae3aa1ce2510"  >
</g>
<g transform="matrix(NaN NaN NaN NaN 0 0)"  >
<g style=""   >
</g>
</g>
<g transform="matrix(2.52 0 0 2.52 600 314)"  >
<g style="" vector-effect="non-scaling-stroke"   >
		<g transform="matrix(1 0 0 1 -41.9 -38.64)"  >
<polygon style="stroke: none; stroke-width: 1; stroke-dasharray: none; stroke-linecap: butt; stroke-dashoffset: 0; stroke-linejoin: miter; stroke-miterlimit: 4; fill: rgb(13,2,68); fill-rule: nonzero; opacity: 1;" vector-effect="non-scaling-stroke"  points="-38.6,-26.75 39.3,-5.35 39.3,26.75 -39.3,6.05 " />
</g>
		<g transform="matrix(1 0 0 1 38.95 -38.64)"  >
<polygon style="stroke: none; stroke-width: 1; stroke-dasharray: none; stroke-linecap: butt; stroke-dashoffset: 0; stroke-linejoin: miter; stroke-miterlimit: 4; fill: rgb(13,2,68); fill-rule: nonzero; opacity: 1;" vector-effect="non-scaling-stroke"  points="38.55,-26.75 -39.35,-5.35 -39.35,26.75 39.35,6.05 " />
</g>
		<g transform="matrix(1 0 0 1 -37.75 6.02)"  >
<path style="stroke: none; stroke-width: 1; stroke-dasharray: none; stroke-linecap: butt; stroke-dashoffset: 0; stroke-linejoin: miter; stroke-miterlimit: 4; fill: rgb(13,2,68); fill-rule: nonzero; opacity: 1;" vector-effect="non-scaling-stroke"  transform=" translate(-462.25, -506.01)" d="M 427.1 474.3 L 497.40000000000003 492.40000000000003 C 497.40000000000003 492.40000000000003 497.40000000000003 537.4000000000001 497.40000000000003 537.4000000000001 C 495.50000000000006 538.0000000000001 482.3 537.6000000000001 480.8 537.5000000000001 C 479 537.4000000000001 469.3 536.3000000000001 464.3 535.2000000000002 C 455.90000000000003 533.3000000000002 448.90000000000003 532.4000000000002 441 528.7000000000002 C 439.6 528.0000000000001 438.2 527.3000000000002 436.8 526.6000000000001 C 435.3 525.8000000000002 427.1 522.5000000000001 427.1 520.8000000000002 C 427.1 520.8 427.1 474.3 427.1 474.3 z" stroke-linecap="round" />
</g>
		<g transform="matrix(1 0 0 1 35.3 5.31)"  >
<path style="stroke: none; stroke-width: 1; stroke-dasharray: none; stroke-linecap: butt; stroke-dashoffset: 0; stroke-linejoin: miter; stroke-miterlimit: 4; fill: rgb(13,2,68); fill-rule: nonzero; opacity: 1;" vector-effect="non-scaling-stroke"  transform=" translate(-535.3, -505.3)" d="M 569.8 473.2 C 546.8 479.59999999999997 523.6999999999999 485.9 500.79999999999995 492.3 C 500.9 507.3 500.99999999999994 522.3 501.09999999999997 537.3 C 501.09999999999997 537.3 501.09999999999997 537.4 501.2 537.4 C 505.59999999999997 536.9 510.59999999999997 536 516 534.6 C 535.6 529.4 551.8 516.8000000000001 567.2 504.20000000000005 C 567.6 503.90000000000003 569.8000000000001 502.50000000000006 569.8000000000001 502.1 C 569.8 502.1 569.8 473.2 569.8 473.2 z" stroke-linecap="round" />
</g>
		<g transform="matrix(1 0 0 1 0.03 21.75)"  >
<path style="stroke: none; stroke-width: 1; stroke-dasharray: none; stroke-linecap: butt; stroke-dashoffset: 0; stroke-linejoin: miter; stroke-miterlimit: 4; fill: rgb(13,2,68); fill-rule: nonzero; opacity: 1;" vector-effect="non-scaling-stroke"  transform=" translate(-500.03, -521.74)" d="M 579 482.8 C 580 482.40000000000003 585.4 488.7 586.6 495.3 C 589.8000000000001 513.8 573.4 529 559.3000000000001 538.2 C 548.5000000000001 545.2 536.3000000000001 550.9000000000001 524.0000000000001 554.6 C 504.7000000000001 560.4 489.2000000000001 560.7 484.3000000000001 560.7 C 477.60000000000014 560.7 468.3000000000001 560.6 456.8000000000001 557.7 C 444.40000000000015 554.5 422.8000000000001 548.9000000000001 415.60000000000014 531.8000000000001 C 409.90000000000015 518.4000000000001 415.3000000000001 502.70000000000005 417.10000000000014 502.80000000000007 C 418.60000000000014 502.80000000000007 416.40000000000015 513.9000000000001 421.60000000000014 524.2 C 434.3000000000001 548.9000000000001 473.8000000000001 550.1 497.5000000000001 548.1 C 515.4000000000001 546.6 532.9000000000001 540.9 548.1000000000001 531.4 C 556.6000000000001 526.1 565.4000000000001 520 571.7000000000002 511.9 C 574.8000000000002 508 577.1000000000001 503.4 578.2000000000002 498.4 C 579.0000000000001 494.79999999999995 578.8000000000002 490.79999999999995 578.8000000000002 490.79999999999995 C 579.2 485.5 578.5 483 579 482.8 z" stroke-linecap="round" />
</g>
		<g transform="matrix(1 0 0 1 -1.5 -61.14)"  >
<polygon style="stroke: none; stroke-width: 1; stroke-dasharray: none; stroke-linecap: butt; stroke-dashoffset: 0; stroke-linejoin: miter; stroke-miterlimit: 4; fill: rgb(13,2,68); fill-rule: nonzero; opacity: 1;" vector-effect="non-scaling-stroke"  points="-69.8,-7.25 -1.1,14.15 69.8,-6.55 40.9,-14.15 -38.6,-14.15 " />
</g>
		<g transform="matrix(1 0 0 1 37.75 4.91)"  >
<path style="stroke: none; stroke-width: 1; stroke-dasharray: none; stroke-linecap: butt; stroke-dashoffset: 0; stroke-linejoin: miter; stroke-miterlimit: 4; fill: rgb(255,253,255); fill-rule: nonzero; opacity: 1;" vector-effect="non-scaling-stroke"  transform=" translate(-537.75, -504.9)" d="M 545.4 521.6 C 540.4 524.4 535.3 527.2 530.3 530 C 530.1999999999999 514.7 530.0999999999999 499.4 530.0999999999999 484.2 C 535.1999999999999 482.8 540.3 481.2 545.3999999999999 479.8 C 545.4 493.7 545.4 507.7 545.4 521.6 z" stroke-linecap="round" />
</g>
		<g transform="matrix(1 0 0 1 -41 8.2)"  >
<path style="stroke: none; stroke-width: 1; stroke-dasharray: none; stroke-linecap: butt; stroke-dashoffset: 0; stroke-linejoin: miter; stroke-miterlimit: 4; fill: rgb(255,253,255); fill-rule: nonzero; opacity: 1;" vector-effect="non-scaling-stroke"  transform=" translate(-459, -508.19)" d="M 450.5 532.2 C 453.5 533 455.6 533.7 457.1 534.1 C 458.5 534.4 459.8 534.7 461.20000000000005 535 C 462.00000000000006 535.2 462.80000000000007 535.3 463.6 535.5 C 464.20000000000005 535.7 464.70000000000005 535.7 465.40000000000003 535.8 C 466.00000000000006 535.9 466.6 535.9 466.90000000000003 535.8 C 467.1 518.8 467.3 501.49999999999994 467.50000000000006 484.59999999999997 C 461.20000000000005 482.99999999999994 456.1000000000001 481.79999999999995 450.70000000000005 480.49999999999994 C 450.6 497.8 450.6 514.8 450.5 532.2 z" stroke-linecap="round" />
</g>
		<g transform="matrix(1 0 0 1 -4 -54.44)"  >
<path style="stroke: none; stroke-width: 1; stroke-dasharray: none; stroke-linecap: butt; stroke-dashoffset: 0; stroke-linejoin: miter; stroke-miterlimit: 4; fill: rgb(255,253,255); fill-rule: nonzero; opacity: 1;" vector-effect="non-scaling-stroke"  transform=" translate(-496, -445.55)" d="M 451.6 426.6 L 533.1 446.20000000000005 L 533.3000000000001 467.30000000000007 L 537.5000000000001 454.50000000000006 L 539.7000000000002 465.50000000000006 L 540.4000000000002 442.40000000000003 C 517.0000000000002 436.20000000000005 493.7000000000002 430.00000000000006 470.3000000000002 423.8 C 458.8 424.3 457.5 425.5 451.6 426.6 z" stroke-linecap="round" />
</g>
		<g transform="matrix(1 0 0 1 -1.35 -47.99)"  >
<path style="stroke: none; stroke-width: 1; stroke-dasharray: none; stroke-linecap: butt; stroke-dashoffset: 0; stroke-linejoin: miter; stroke-miterlimit: 4; fill: rgb(255,253,255); fill-rule: nonzero; opacity: 1;" vector-effect="non-scaling-stroke"  transform=" translate(-498.65, -452)" d="M 467.2 448.5 C 467.3 453.6 467.4 458.8 467.4 464 C 467.5 469.4 467.5 474.9 467.59999999999997 480.3 C 462.2 478.90000000000003 456.7 477.40000000000003 451.2 476 C 451.5 470.7 451.8 465.3 452.09999999999997 460 C 452.4 454.9 452.7 449.8 452.99999999999994 444.8 C 479.79999999999995 437.8 506.59999999999997 430.8 533.5 423.7 C 538.5 424.4 542.6 425.3 546.1 426.5 C 520 433.6 493.2 441.2 467.2 448.5 z" stroke-linecap="round" />
</g>
		<g transform="matrix(1 0 0 1 -1.28 -92.08)"  >
<path style="stroke: none; stroke-width: 1; stroke-dasharray: none; stroke-linecap: butt; stroke-dashoffset: 0; stroke-linejoin: miter; stroke-miterlimit: 4; fill: rgb(13,2,68); fill-rule: nonzero; opacity: 1;" vector-effect="non-scaling-stroke"  transform=" translate(-498.72, -407.91)" d="M 483.1 427.9 C 475.1 426.4 466.70000000000005 424.5 459.8 419.9 C 447.5 411.79999999999995 449.40000000000003 392 464.1 387.9 C 475 384.79999999999995 486 392.5 492 401.09999999999997 C 493.1 402.79999999999995 494.2 404.49999999999994 495 406.29999999999995 C 496.7 409.9 499.3 414.79999999999995 499.8 417.19999999999993 C 501.2 412.79999999999995 503 405.5999999999999 507.2 398.69999999999993 C 513.4 388.49999999999994 528.7 382.49999999999994 539.4 389.79999999999995 C 545.9 394.19999999999993 547.1 402.59999999999997 544.4 409.49999999999994 C 541.3 417.3999999999999 534.9 421.99999999999994 527.1 424.69999999999993 C 523.2 426.0999999999999 519.8000000000001 426.79999999999995 514.9 427.69999999999993 C 511.09999999999997 428.3999999999999 508 428.8999999999999 505.7 429.19999999999993 C 498.1 429.3 490.6 429.3 483.1 427.9 z" stroke-linecap="round" />
</g>
		<g transform="matrix(1 0 0 1 21.12 -89.89)"  >
<path style="stroke: none; stroke-width: 1; stroke-dasharray: none; stroke-linecap: butt; stroke-dashoffset: 0; stroke-linejoin: miter; stroke-miterlimit: 4; fill: rgb(255,253,255); fill-rule: nonzero; opacity: 1;" vector-effect="non-scaling-stroke"  transform=" translate(-521.12, -410.1)" d="M 508.8 420.1 C 510.6 414.8 512.4 409.1 515.8 404.6 C 518.3 401.3 522.1999999999999 398.3 526.5999999999999 398.40000000000003 C 530.4999999999999 398.50000000000006 533.4999999999999 401.40000000000003 533.5999999999999 405.40000000000003 C 533.8 416.6 518.0999999999999 419.00000000000006 510.2999999999999 421.6 C 509.9999999999999 421.70000000000005 509.1999999999999 422 508.7999999999999 421.6 C 508.5 421.3 508.7 420.5 508.8 420.1 z" stroke-linecap="round" />
</g>
		<g transform="matrix(1 0 0 1 -21.45 -89.06)"  >
<path style="stroke: none; stroke-width: 1; stroke-dasharray: none; stroke-linecap: butt; stroke-dashoffset: 0; stroke-linejoin: miter; stroke-miterlimit: 4; fill: rgb(255,253,255); fill-rule: nonzero; opacity: 1;" vector-effect="non-scaling-stroke"  transform=" translate(-478.55, -410.93)" d="M 489.8 422.3 C 484.40000000000003 421.3 478.40000000000003 420.3 473.5 417.5 C 469.9 415.5 466.4 412 465.8 407.7 C 465.3 403.8 467.8 400.4 471.7 399.7 C 482.7 397.9 487.3 413.09999999999997 491 420.5 C 491.2 420.7 491.6 421.6 491.2 422 C 490.79999999999995 422.4 490.1 422.3 489.8 422.3 z" stroke-linecap="round" />
</g>
		<g transform="matrix(1 0 0 1 -210.75 93.56)"  >
<path style="stroke: none; stroke-width: 1; stroke-dasharray: none; stroke-linecap: butt; stroke-dashoffset: 0; stroke-linejoin: miter; stroke-miterlimit: 4; fill: rgb(13,2,68); fill-rule: nonzero; opacity: 1;" vector-effect="non-scaling-stroke"  transform=" translate(-289.25, -593.55)" d="M 301.6 612.7 L 301.5 592.4000000000001 L 291.6 608.9000000000001 L 286.8 608.9000000000001 L 277 592.9000000000001 L 277 612.7 L 267 612.7 L 267 574.4000000000001 L 275.9 574.4000000000001 L 289.4 596.5000000000001 L 302.5 574.4000000000001 L 311.4 574.4000000000001 L 311.5 612.7 L 301.6 612.7 z" stroke-linecap="round" />
</g>
		<g transform="matrix(1 0 0 1 -175.4 93.56)"  >
<path style="stroke: none; stroke-width: 1; stroke-dasharray: none; stroke-linecap: butt; stroke-dashoffset: 0; stroke-linejoin: miter; stroke-miterlimit: 4; fill: rgb(13,2,68); fill-rule: nonzero; opacity: 1;" vector-effect="non-scaling-stroke"  transform=" translate(-324.6, -593.55)" d="M 319.2 574.4 L 330 574.4 L 330 612.6999999999999 L 319.2 612.6999999999999 L 319.2 574.4 z" stroke-linecap="round" />
</g>
		<g transform="matrix(1 0 0 1 -144.55 93.56)"  >
<path style="stroke: none; stroke-width: 1; stroke-dasharray: none; stroke-linecap: butt; stroke-dashoffset: 0; stroke-linejoin: miter; stroke-miterlimit: 4; fill: rgb(13,2,68); fill-rule: nonzero; opacity: 1;" vector-effect="non-scaling-stroke"  transform=" translate(-355.45, -593.55)" d="M 354.5 602.5 L 348.6 602.5 L 348.6 612.7 L 337.8 612.7 L 337.8 574.4000000000001 L 355.3 574.4000000000001 C 365.8 574.4000000000001 372.3 579.8000000000001 372.3 588.6000000000001 C 372.3 594.2000000000002 369.6 598.4000000000001 364.8 600.7000000000002 L 373.1 612.7000000000002 L 361.5 612.7000000000002 L 354.5 602.5 z M 354.6 582.9 L 348.6 582.9 L 348.6 594.1 L 354.6 594.1 C 359.1 594.1 361.3 592 361.3 588.5 C 361.4 585 359.1 582.9 354.6 582.9 z" stroke-linecap="round" />
</g>
		<g transform="matrix(1 0 0 1 -88.45 93.46)"  >
<path style="stroke: none; stroke-width: 1; stroke-dasharray: none; stroke-linecap: butt; stroke-dashoffset: 0; stroke-linejoin: miter; stroke-miterlimit: 4; fill: rgb(13,2,68); fill-rule: nonzero; opacity: 1;" vector-effect="non-scaling-stroke"  transform=" translate(-411.55, -593.45)" d="M 428.8 588.5 C 428.8 597.2 422.2 602.6 411.8 602.6 L 405.1 602.6 L 405.1 612.6 L 394.3 612.6 L 394.3 574.3000000000001 L 411.8 574.3000000000001 C 422.2 574.4 428.8 579.8 428.8 588.5 z M 417.8 588.5 C 417.8 584.9 415.6 582.9 411.1 582.9 L 405.1 582.9 L 405.1 594.1 L 411.1 594.1 C 415.6 594.1 417.8 592.1 417.8 588.5 z" stroke-linecap="round" />
</g>
		<g transform="matrix(1 0 0 1 -46.1 93.51)"  >
<path style="stroke: none; stroke-width: 1; stroke-dasharray: none; stroke-linecap: butt; stroke-dashoffset: 0; stroke-linejoin: miter; stroke-miterlimit: 4; fill: rgb(13,2,68); fill-rule: nonzero; opacity: 1;" vector-effect="non-scaling-stroke"  transform=" translate(-453.9, -593.5)" d="M 432.6 593.5 C 432.6 582 441.6 573.6 453.90000000000003 573.6 C 466.20000000000005 573.6 475.20000000000005 582 475.20000000000005 593.5 C 475.20000000000005 605 466.20000000000005 613.4 453.90000000000003 613.4 C 441.8 613.5 432.6 605 432.6 593.5 z M 464.3 593.5 C 464.3 586.9 459.8 582.5 453.90000000000003 582.5 C 448.00000000000006 582.5 443.50000000000006 586.8 443.50000000000006 593.5 C 443.50000000000006 600.1 448.00000000000006 604.5 453.90000000000003 604.5 C 459.8 604.5 464.3 600.2 464.3 593.5 z" stroke-linecap="round" />
</g>
		<g transform="matrix(1 0 0 1 0.65 93.61)"  >
<path style="stroke: none; stroke-width: 1; stroke-dasharray: none; stroke-linecap: butt; stroke-dashoffset: 0; stroke-linejoin: miter; stroke-miterlimit: 4; fill: rgb(13,2,68); fill-rule: nonzero; opacity: 1;" vector-effect="non-scaling-stroke"  transform=" translate(-500.65, -593.6)" d="M 480.9 574.4 L 499 574.4 C 511.7 574.4 520.4 581.8 520.4 593.6 C 520.4 605.4000000000001 511.7 612.8000000000001 499 612.8000000000001 L 481 612.8000000000001 L 480.9 574.4 L 480.9 574.4 z M 498.6 604 C 505.1 604 509.5 600.1 509.5 593.5 C 509.5 586.9 505.1 583 498.6 583 L 491.8 583 L 491.8 604 L 498.6 604 z" stroke-linecap="round" />
</g>
		<g transform="matrix(1 0 0 1 43.3 93.46)"  >
<path style="stroke: none; stroke-width: 1; stroke-dasharray: none; stroke-linecap: butt; stroke-dashoffset: 0; stroke-linejoin: miter; stroke-miterlimit: 4; fill: rgb(13,2,68); fill-rule: nonzero; opacity: 1;" vector-effect="non-scaling-stroke"  transform=" translate(-543.3, -593.45)" d="M 551.3 605.2 L 535.0999999999999 605.2 L 532.0999999999999 612.6 L 521 612.6 L 537.9 574.3000000000001 L 548.6 574.3000000000001 L 565.6 612.6 L 554.3000000000001 612.6 L 551.3 605.2 z M 548.1 597.3 L 543.2 585 L 538.3000000000001 597.3 L 548.1 597.3 z" stroke-linecap="round" />
</g>
		<g transform="matrix(1 0 0 1 86.45 93.56)"  >
<path style="stroke: none; stroke-width: 1; stroke-dasharray: none; stroke-linecap: butt; stroke-dashoffset: 0; stroke-linejoin: miter; stroke-miterlimit: 4; fill: rgb(13,2,68); fill-rule: nonzero; opacity: 1;" vector-effect="non-scaling-stroke"  transform=" translate(-586.45, -593.55)" d="M 585.5 602.5 L 579.6 602.5 L 579.6 612.7 L 568.8000000000001 612.7 L 568.8000000000001 574.4000000000001 L 586.3000000000001 574.4000000000001 C 596.8000000000001 574.4000000000001 603.3000000000001 579.8000000000001 603.3000000000001 588.6000000000001 C 603.3000000000001 594.2000000000002 600.6 598.4000000000001 595.8000000000001 600.7000000000002 L 604.1 612.7000000000002 L 592.5 612.7000000000002 L 585.5 602.5 z M 585.5 582.9 L 579.5 582.9 L 579.5 594.1 L 585.5 594.1 C 590 594.1 592.2 592 592.2 588.5 C 592.2 585 590 582.9 585.5 582.9 z" stroke-linecap="round" />
</g>
		<g transform="matrix(1 0 0 1 128.3 93.61)"  >
<path style="stroke: none; stroke-width: 1; stroke-dasharray: none; stroke-linecap: butt; stroke-dashoffset: 0; stroke-linejoin: miter; stroke-miterlimit: 4; fill: rgb(13,2,68); fill-rule: nonzero; opacity: 1;" vector-effect="non-scaling-stroke"  transform=" translate(-628.3, -593.6)" d="M 624 598.8 L 619.9 603.0999999999999 L 619.9 612.6999999999999 L 609.1999999999999 612.6999999999999 L 609.1999999999999 574.4 L 619.9 574.4 L 619.9 590.3 L 634.6999999999999 574.4 L 646.5999999999999 574.4 L 630.8999999999999 591.4 L 647.3999999999999 612.8 L 634.7999999999998 612.8 L 624 598.8 z" stroke-linecap="round" />
</g>
		<g transform="matrix(1 0 0 1 168.3 93.51)"  >
<path style="stroke: none; stroke-width: 1; stroke-dasharray: none; stroke-linecap: butt; stroke-dashoffset: 0; stroke-linejoin: miter; stroke-miterlimit: 4; fill: rgb(13,2,68); fill-rule: nonzero; opacity: 1;" vector-effect="non-scaling-stroke"  transform=" translate(-668.3, -593.5)" d="M 647 593.5 C 647 582 656 573.6 668.3 573.6 C 680.5999999999999 573.6 689.5999999999999 582 689.5999999999999 593.5 C 689.5999999999999 605 680.5999999999999 613.4 668.3 613.4 C 656 613.5 647 605 647 593.5 z M 678.8 593.5 C 678.8 586.9 674.3 582.5 668.4 582.5 C 662.5 582.5 658 586.8 658 593.5 C 658 600.1 662.5 604.5 668.4 604.5 C 674.3 604.5 678.8 600.2 678.8 593.5 z" stroke-linecap="round" />
</g>
		<g transform="matrix(1 0 0 1 211.25 93.56)"  >
<path style="stroke: none; stroke-width: 1; stroke-dasharray: none; stroke-linecap: butt; stroke-dashoffset: 0; stroke-linejoin: miter; stroke-miterlimit: 4; fill: rgb(13,2,68); fill-rule: nonzero; opacity: 1;" vector-effect="non-scaling-stroke"  transform=" translate(-711.25, -593.55)" d="M 733 574.4 L 716.6 612.6999999999999 L 705.9 612.6999999999999 L 689.5 574.4 L 701.2 574.4 L 711.6 599.4 L 722.2 574.4 L 733 574.4 z" stroke-linecap="round" />
</g>
</g>
</g>
</svg>